# 
# Generated by Sweet Home 3D - Tue Apr 21 18:14:29 EDT 2015
# http://www.sweethome3d.com/
# 
mtllib table_draft.mtl
g ground_1
usemtl ground_1
v -120.466225 0.0 -62.457935
v -120.466225 0.0 62.002064
v 120.83378 0.0 62.002064
v 120.83378 0.0 -62.457935
vn 0.0 1.0 0.0
vn 0.0 0.0 0.0
f 1//1 2//1 3//1
f 1//1 3//1 4//1
g 2
usemtl lighttannew
v 120.83378 50.519047 62.002064
v -120.466225 50.519047 62.002064
v 0.18377686 50.519047 -0.22793579
v 120.83378 50.519047 -62.457935
v -120.466225 50.519047 -62.457935
v 120.83378 51.929523 -0.22793579
v 120.83378 53.34 -62.457935
v 120.83378 53.34 62.002064
v 0.18377686 51.929523 62.002064
v -120.466225 53.34 62.002064
v -120.466225 51.929523 -0.22793579
v -120.466225 53.34 -62.457935
v 0.18377686 53.34 -0.22793579
v 0.18377686 51.929523 -62.457935
vn 0.0 -0.99999994 0.0
vn 1.0 0.0 0.0
vn 0.0 0.0 1.0
vn -1.0 0.0 0.0
vn 0.0 0.99999994 0.0
vn 0.0 0.0 -1.0
f 5//3 6//3 7//3
f 8//3 5//3 7//3
f 9//3 8//3 7//3
f 6//3 9//3 7//3
f 5//4 8//4 10//4
f 8//4 11//4 10//4
f 11//4 12//4 10//4
f 12//4 5//4 10//4
f 6//5 5//5 13//5
f 5//5 12//5 13//5
f 12//5 14//5 13//5
f 14//5 6//5 13//5
f 9//6 6//6 15//6
f 6//6 14//6 15//6
f 14//6 16//6 15//6
f 16//6 9//6 15//6
f 14//7 12//7 17//7
f 12//7 11//7 17//7
f 11//7 16//7 17//7
f 16//7 14//7 17//7
f 8//8 9//8 18//8
f 9//8 16//8 18//8
f 16//8 11//8 18//8
f 11//8 8//8 18//8
g 3
usemtl lighttannew
v 103.05378 13.84665 44.577663
v -102.686226 13.84665 44.577663
v 0.18377686 13.84665 -0.22793579
v 103.05378 13.84665 -45.033535
v -102.686226 13.84665 -45.033535
v 103.05378 15.257127 -0.22793579
v 103.05378 16.667604 -45.033535
v 103.05378 16.667604 44.577663
v 0.18377686 15.257127 44.577663
v -102.686226 16.667604 44.577663
v -102.686226 15.257127 -0.22793579
v -102.686226 16.667604 -45.033535
v 0.18377686 16.667604 -0.22793579
v 0.18377686 15.257127 -45.033535
f 19//3 20//3 21//3
f 22//3 19//3 21//3
f 23//3 22//3 21//3
f 20//3 23//3 21//3
f 19//4 22//4 24//4
f 22//4 25//4 24//4
f 25//4 26//4 24//4
f 26//4 19//4 24//4
f 20//5 19//5 27//5
f 19//5 26//5 27//5
f 26//5 28//5 27//5
f 28//5 20//5 27//5
f 23//6 20//6 29//6
f 20//6 28//6 29//6
f 28//6 30//6 29//6
f 30//6 23//6 29//6
f 28//7 26//7 31//7
f 26//7 25//7 31//7
f 25//7 30//7 31//7
f 30//7 28//7 31//7
f 22//8 23//8 32//8
f 23//8 30//8 32//8
f 30//8 25//8 32//8
f 25//8 22//8 32//8
g Pied_avant_gauche_4
usemtl black
v -113.350235 0.0002398 48.7116
v -105.123886 0.0002398 44.091972
v -103.71761 0.0002398 45.470116
v -107.96208 0.0002398 53.991993
v -93.18477 50.777405 35.554043
v -99.84058 50.777405 46.03292
v -95.83163 25.388823 42.104145
v -94.82434 50.777405 33.94726
v -105.228745 50.777405 40.752537
v -105.296684 29.913603 40.819122
v -102.39255 16.070465 48.533848
v -101.21978 25.388823 36.823757
v -107.7807 16.070465 43.253456
v -91.53697 20.175571 32.61499
v -91.18915 33.13052 31.329445
v -90.36936 33.13052 32.132835
v -99.90854 29.913603 46.09951
vn 0.85359365 0.015689775 0.5207031
vn 0.5327227 -0.0868604 -0.84182054
vn 0.90002453 -0.06787747 0.43052113
vn -0.7142121 0.0014358814 0.69992787
vn -0.7060334 0.1509094 0.6919128
vn -0.50399363 -0.055329304 -0.86193335
vn -0.71421283 0.0 -0.6999286
vn -0.56284815 0.013657327 -0.8264475
vn 0.87493354 -0.08530355 -0.47667032
vn 0.68844366 -0.26619396 -0.6746748
vn -0.6634086 -0.0065045515 -0.748229
vn 0.7120111 0.07846133 -0.69777083
vn 0.7723648 -0.013877351 0.6350276
vn 0.71421283 0.0 0.6999286
vn -0.7119923 0.07879349 0.6977525
vn -0.6030636 -0.020412523 -0.79743195
vn 0.7139287 -0.02820349 -0.69965017
vn 0.7411951 -0.005318756 0.6712687
f 33//3 34//3 35//3
f 36//3 33//3 35//3
f 37//9 38//9 39//9
f 38//7 37//7 40//7
f 35//10 37//10 39//10
f 36//11 35//11 39//11
f 41//12 42//12 38//12
f 36//13 43//13 33//13
f 34//14 33//14 44//14
f 33//15 45//15 44//15
f 41//16 40//16 44//16
f 40//17 34//17 44//17
f 35//18 34//18 46//18
f 40//19 47//19 34//19
f 37//20 48//20 40//20
f 46//21 48//21 35//21
f 38//22 49//22 39//22
f 41//7 38//7 40//7
f 39//22 43//22 36//22
f 45//15 42//15 44//15
f 33//13 43//13 45//13
f 43//23 42//23 45//23
f 38//12 42//12 49//12
f 49//23 42//23 43//23
f 39//22 49//22 43//22
f 44//15 42//15 41//15
f 34//24 47//24 46//24
f 40//20 48//20 47//20
f 47//25 48//25 46//25
f 35//26 48//26 37//26
g Pied_arriere_gauche_5
usemtl black
v -107.96208 -0 -54.44876
v -103.24818 -0 -46.38694
v -104.65445 -0 -45.008797
v -113.350235 -0 -49.16837
v -94.535995 50.77716 -34.686604
v -105.228745 50.77716 -41.209305
v -101.21978 25.388582 -37.28052
v -92.89642 50.77716 -36.29338
v -99.84058 50.77716 -46.489693
v -99.90854 29.913363 -46.55628
v -107.7807 16.070225 -43.710228
v -95.83163 25.388582 -42.560913
v -102.39255 16.070225 -48.99062
v -91.53697 20.175333 -33.07176
v -90.22519 33.13028 -32.73089
v -91.04497 33.13028 -31.9275
v -105.296684 29.913363 -41.275887
vn -0.53608817 0.015830291 0.8440135
vn 0.85137993 -0.08608981 0.51743674
vn -0.44477504 -0.06872229 0.8930019
vn -0.7142121 0.0014358814 -0.69992787
vn -0.7060334 0.1509094 -0.6919128
vn 0.87061334 -0.054768756 -0.48890987
vn 0.71421283 0.0 -0.6999286
vn 0.83680475 0.013551913 -0.5473338
vn 0.49157366 -0.0862112 0.86655813
vn 0.68844366 -0.26619396 0.6746748
vn 0.7613491 -0.006486235 -0.6483097
vn 0.7120111 0.07846133 0.69777083
vn -0.6502659 -0.013926148 0.75957906
vn -0.71421283 0.0 0.6999286
vn -0.7119923 0.07879349 -0.6977525
vn 0.80894005 -0.020292964 -0.5875407
vn 0.7139287 -0.02820349 0.69965017
vn -0.6860582 -0.0053272215 0.7275272
f 50//3 51//3 52//3
f 53//3 50//3 52//3
f 54//27 55//27 56//27
f 55//7 54//7 57//7
f 52//28 54//28 56//28
f 53//29 52//29 56//29
f 58//30 59//30 55//30
f 53//31 60//31 50//31
f 51//32 50//32 61//32
f 50//33 62//33 61//33
f 58//34 57//34 61//34
f 57//35 51//35 61//35
f 52//36 51//36 63//36
f 57//37 64//37 51//37
f 54//38 65//38 57//38
f 63//39 65//39 52//39
f 55//40 66//40 56//40
f 58//7 55//7 57//7
f 56//40 60//40 53//40
f 62//33 59//33 61//33
f 50//31 60//31 62//31
f 60//41 59//41 62//41
f 55//30 59//30 66//30
f 66//41 59//41 60//41
f 56//40 66//40 60//40
f 61//33 59//33 58//33
f 51//42 64//42 63//42
f 57//38 65//38 64//38
f 64//43 65//43 63//43
f 52//44 65//44 54//44
g Pied_avant_droit_6
usemtl black
v 108.329636 -0 53.99289
v 103.61573 -0 45.93107
v 105.022 -0 44.552925
v 113.71779 -0 48.712498
v 94.90355 50.77716 34.230732
v 105.5963 50.77716 40.753433
v 101.58733 25.388582 36.82465
v 93.26398 50.77716 35.83751
v 100.20814 50.77716 46.03382
v 100.27609 29.913363 46.100407
v 108.148254 16.070225 43.254356
v 96.19918 25.388582 42.10504
v 102.7601 16.070225 48.534748
v 91.904526 20.175333 32.615887
v 90.59274 33.13028 32.275017
v 91.41252 33.13028 31.471628
v 105.66424 29.913363 40.820015
vn 0.53608817 0.015830291 -0.8440135
vn -0.85137993 -0.08608981 -0.51743674
vn 0.44477504 -0.06872229 -0.8930019
vn 0.7142121 0.0014358814 0.69992787
vn 0.7060334 0.1509094 0.6919128
vn -0.87061334 -0.054768756 0.48890987
vn -0.83680475 0.013551913 0.5473338
vn -0.49157366 -0.0862112 -0.86655813
vn -0.68844366 -0.26619396 -0.6746748
vn -0.7613491 -0.006486235 0.6483097
vn -0.7120111 0.07846133 -0.69777083
vn 0.6502659 -0.013926148 -0.75957906
vn 0.7119923 0.07879349 0.6977525
vn -0.80894005 -0.020292964 0.5875407
vn -0.7139287 -0.02820349 -0.69965017
vn 0.6860582 -0.0053272215 -0.7275272
f 67//3 68//3 69//3
f 70//3 67//3 69//3
f 71//45 72//45 73//45
f 72//7 71//7 74//7
f 69//46 71//46 73//46
f 70//47 69//47 73//47
f 75//48 76//48 72//48
f 70//49 77//49 67//49
f 68//50 67//50 78//50
f 67//40 79//40 78//40
f 75//51 74//51 78//51
f 74//52 68//52 78//52
f 69//53 68//53 80//53
f 74//54 81//54 68//54
f 71//55 82//55 74//55
f 80//56 82//56 69//56
f 72//33 83//33 73//33
f 75//7 72//7 74//7
f 73//33 77//33 70//33
f 79//40 76//40 78//40
f 67//49 77//49 79//49
f 77//57 76//57 79//57
f 72//48 76//48 83//48
f 83//57 76//57 77//57
f 73//33 83//33 77//33
f 78//40 76//40 75//40
f 68//58 81//58 80//58
f 74//55 82//55 81//55
f 81//59 82//59 80//59
f 69//60 82//60 71//60
g Pied_arriere_droit_7
usemtl black
v 113.71779 -0 -49.16837
v 105.49144 -0 -44.54874
v 104.08517 -0 -45.926888
v 108.329636 -0 -54.44876
v 93.55232 50.77716 -36.010807
v 100.20814 50.77716 -46.489693
v 96.19918 25.388582 -42.560913
v 95.191895 50.77716 -34.40403
v 105.5963 50.77716 -41.209305
v 105.66424 29.913363 -41.275887
v 102.7601 16.070225 -48.99062
v 101.58733 25.388582 -37.28052
v 108.148254 16.070225 -43.710228
v 91.904526 20.175333 -33.07176
v 91.5567 33.13028 -31.786211
v 90.736916 33.13028 -32.5896
v 100.27609 29.913363 -46.55628
vn -0.85359365 0.015689775 -0.5207031
vn -0.5327227 -0.0868604 0.84182054
vn -0.90002453 -0.06787747 -0.43052113
vn 0.7142121 0.0014358814 -0.69992787
vn 0.7060334 0.1509094 -0.6919128
vn 0.50399363 -0.055329304 0.86193335
vn 0.56284815 0.013657327 0.8264475
vn -0.87493354 -0.08530355 0.47667032
vn -0.68844366 -0.26619396 0.6746748
vn 0.6634086 -0.0065045515 0.748229
vn -0.7120111 0.07846133 0.69777083
vn -0.7723648 -0.013877351 -0.6350276
vn 0.7119923 0.07879349 -0.6977525
vn 0.6030636 -0.020412523 0.79743195
vn -0.7139287 -0.02820349 0.69965017
vn -0.7411951 -0.005318756 -0.6712687
f 84//3 85//3 86//3
f 87//3 84//3 86//3
f 88//61 89//61 90//61
f 89//7 88//7 91//7
f 86//62 88//62 90//62
f 87//63 86//63 90//63
f 92//64 93//64 89//64
f 87//65 94//65 84//65
f 85//66 84//66 95//66
f 84//22 96//22 95//22
f 92//67 91//67 95//67
f 91//68 85//68 95//68
f 86//69 85//69 97//69
f 91//70 98//70 85//70
f 88//71 99//71 91//71
f 97//72 99//72 86//72
f 89//15 100//15 90//15
f 92//7 89//7 91//7
f 90//15 94//15 87//15
f 96//22 93//22 95//22
f 84//65 94//65 96//65
f 94//73 93//73 96//73
f 89//64 93//64 100//64
f 100//73 93//73 94//73
f 90//15 100//15 94//15
f 95//22 93//22 92//22
f 85//74 98//74 97//74
f 91//71 99//71 98//71
f 98//75 99//75 97//75
f 86//76 99//76 88//76
